<?xml version="1.0" encoding="UTF-8"?>
<svg id="Layer_1" xmlns="http://www.w3.org/2000/svg" viewBox="0 0 1024 1024"><defs><style>.cls-1{fill:#f2836b;}.cls-2{fill:#afb1b2;}</style></defs><path class="cls-2" d="m466,611.97c-.45,0-.87.11-1.32.13v-.13c-57.26-3.77-107-64.2-107.06-108.5.96-34.31,3.02-75.46,4.87-82.18,31.87-178.24,165.63-321.15,338.96-366.12-62.02-31.99-132.28-50.17-206.74-50.17C245.09,5,42.02,208.07,42.02,457.69v403.61c0,87.1,70.61,157.7,157.71,157.7s157.71-70.61,157.71-157.7v-84.34c0-61.12,47.13-111,107.25-114.96v-.14c.45.02.87.13,1.32.13,13.81,0,25.01-11.2,25.01-25.01s-11.2-25.01-25.01-25.01Z"/><g><path class="cls-1" d="m849.11,223.76c24,0,47.58,1.82,70.62,5.26-28.74-48.83-66.34-91.85-110.62-126.78-161.78,15.08-299.3,113.41-369.47,251.73,24.08-20.84,55.38-33.55,89.65-33.55,9.87,0,19.48,1.1,28.77,3.09,80.4-62.47,181.34-99.74,291.04-99.74Z"/><path class="cls-1" d="m959.19,315.85c-40.48-11.22-83.08-17.35-127.14-17.35-78.12,0-151.79,18.92-216.79,52.33,31.24,25.18,51.3,63.7,51.3,106.86v45.76c-.04,44.3-49.8,104.75-107.06,108.52v.13c-.45-.02-.87-.13-1.32-.13-13.81,0-25.01,11.2-25.01,25.01s11.2,25.01,25.01,25.01c.45,0,.87-.11,1.32-.13v.14c58.03,3.82,103.95,50.44,107.06,108.64v90.65c0,87.1,70.61,157.7,157.71,157.7s157.71-70.61,157.71-157.7v-403.61c0-49.53-8.01-97.21-22.79-141.84Z"/></g></svg>